<mxfile host="app.diagrams.net" modified="2023-11-09T15:58:11.064Z" agent="Mozilla/5.0 (Windows NT 10.0; WOW64) AppleWebKit/537.36 (KHTML, like Gecko) Chrome/109.0.0.0 Safari/537.36" etag="EWARIW8u-0IhzOxN-fYb" version="22.1.0" type="device">
  <diagram id="C5RBs43oDa-KdzZeNtuy" name="Page-1">
    <mxGraphModel dx="1833" dy="505" grid="1" gridSize="10" guides="1" tooltips="1" connect="1" arrows="1" fold="1" page="1" pageScale="1" pageWidth="827" pageHeight="1169" math="0" shadow="0">
      <root>
        <mxCell id="WIyWlLk6GJQsqaUBKTNV-0" />
        <mxCell id="WIyWlLk6GJQsqaUBKTNV-1" parent="WIyWlLk6GJQsqaUBKTNV-0" />
        <mxCell id="hgIJVjoQUOw6pycMSGW2-2" value="" style="edgeStyle=orthogonalEdgeStyle;rounded=0;orthogonalLoop=1;jettySize=auto;html=1;" edge="1" parent="WIyWlLk6GJQsqaUBKTNV-1" source="hgIJVjoQUOw6pycMSGW2-0" target="hgIJVjoQUOw6pycMSGW2-1">
          <mxGeometry relative="1" as="geometry" />
        </mxCell>
        <mxCell id="hgIJVjoQUOw6pycMSGW2-0" value="Start" style="ellipse;whiteSpace=wrap;html=1;" vertex="1" parent="WIyWlLk6GJQsqaUBKTNV-1">
          <mxGeometry x="354" width="120" height="80" as="geometry" />
        </mxCell>
        <mxCell id="hgIJVjoQUOw6pycMSGW2-4" value="" style="edgeStyle=orthogonalEdgeStyle;rounded=0;orthogonalLoop=1;jettySize=auto;html=1;" edge="1" parent="WIyWlLk6GJQsqaUBKTNV-1" source="hgIJVjoQUOw6pycMSGW2-1">
          <mxGeometry relative="1" as="geometry">
            <mxPoint x="415" y="200" as="targetPoint" />
          </mxGeometry>
        </mxCell>
        <mxCell id="hgIJVjoQUOw6pycMSGW2-1" value="a,b,c" style="shape=parallelogram;perimeter=parallelogramPerimeter;whiteSpace=wrap;html=1;fixedSize=1;" vertex="1" parent="WIyWlLk6GJQsqaUBKTNV-1">
          <mxGeometry x="340" y="110" width="150" height="60" as="geometry" />
        </mxCell>
        <mxCell id="hgIJVjoQUOw6pycMSGW2-14" value="true" style="edgeStyle=orthogonalEdgeStyle;rounded=0;orthogonalLoop=1;jettySize=auto;html=1;" edge="1" parent="WIyWlLk6GJQsqaUBKTNV-1" source="hgIJVjoQUOw6pycMSGW2-12" target="hgIJVjoQUOw6pycMSGW2-13">
          <mxGeometry relative="1" as="geometry" />
        </mxCell>
        <mxCell id="hgIJVjoQUOw6pycMSGW2-16" value="false" style="edgeStyle=orthogonalEdgeStyle;rounded=0;orthogonalLoop=1;jettySize=auto;html=1;" edge="1" parent="WIyWlLk6GJQsqaUBKTNV-1" source="hgIJVjoQUOw6pycMSGW2-12" target="hgIJVjoQUOw6pycMSGW2-15">
          <mxGeometry relative="1" as="geometry" />
        </mxCell>
        <mxCell id="hgIJVjoQUOw6pycMSGW2-12" value="a=b=c" style="rhombus;whiteSpace=wrap;html=1;" vertex="1" parent="WIyWlLk6GJQsqaUBKTNV-1">
          <mxGeometry x="344" y="200" width="140" height="80" as="geometry" />
        </mxCell>
        <mxCell id="hgIJVjoQUOw6pycMSGW2-13" value="Tam giác đều" style="shape=parallelogram;perimeter=parallelogramPerimeter;whiteSpace=wrap;html=1;fixedSize=1;" vertex="1" parent="WIyWlLk6GJQsqaUBKTNV-1">
          <mxGeometry x="530" y="210" width="120" height="60" as="geometry" />
        </mxCell>
        <mxCell id="hgIJVjoQUOw6pycMSGW2-19" value="true" style="edgeStyle=orthogonalEdgeStyle;rounded=0;orthogonalLoop=1;jettySize=auto;html=1;" edge="1" parent="WIyWlLk6GJQsqaUBKTNV-1" source="hgIJVjoQUOw6pycMSGW2-15" target="hgIJVjoQUOw6pycMSGW2-18">
          <mxGeometry relative="1" as="geometry" />
        </mxCell>
        <mxCell id="hgIJVjoQUOw6pycMSGW2-30" value="false" style="edgeStyle=orthogonalEdgeStyle;rounded=0;orthogonalLoop=1;jettySize=auto;html=1;" edge="1" parent="WIyWlLk6GJQsqaUBKTNV-1" source="hgIJVjoQUOw6pycMSGW2-15" target="hgIJVjoQUOw6pycMSGW2-29">
          <mxGeometry relative="1" as="geometry" />
        </mxCell>
        <mxCell id="hgIJVjoQUOw6pycMSGW2-15" value="a=b || b=c || a=c" style="rhombus;whiteSpace=wrap;html=1;" vertex="1" parent="WIyWlLk6GJQsqaUBKTNV-1">
          <mxGeometry x="350" y="320" width="130" height="80" as="geometry" />
        </mxCell>
        <mxCell id="hgIJVjoQUOw6pycMSGW2-22" value="true" style="edgeStyle=orthogonalEdgeStyle;rounded=0;orthogonalLoop=1;jettySize=auto;html=1;" edge="1" parent="WIyWlLk6GJQsqaUBKTNV-1" source="hgIJVjoQUOw6pycMSGW2-18" target="hgIJVjoQUOw6pycMSGW2-21">
          <mxGeometry relative="1" as="geometry" />
        </mxCell>
        <mxCell id="hgIJVjoQUOw6pycMSGW2-26" value="false" style="edgeStyle=orthogonalEdgeStyle;rounded=0;orthogonalLoop=1;jettySize=auto;html=1;" edge="1" parent="WIyWlLk6GJQsqaUBKTNV-1" source="hgIJVjoQUOw6pycMSGW2-18" target="hgIJVjoQUOw6pycMSGW2-23">
          <mxGeometry relative="1" as="geometry" />
        </mxCell>
        <mxCell id="hgIJVjoQUOw6pycMSGW2-18" value="a*a+b*b =c*c ||&lt;br&gt;b*b+c*c=a*a ||&lt;br&gt;a*a+c*c=b*b" style="rhombus;whiteSpace=wrap;html=1;" vertex="1" parent="WIyWlLk6GJQsqaUBKTNV-1">
          <mxGeometry x="150" y="300" width="150" height="120" as="geometry" />
        </mxCell>
        <mxCell id="hgIJVjoQUOw6pycMSGW2-43" style="edgeStyle=orthogonalEdgeStyle;rounded=0;orthogonalLoop=1;jettySize=auto;html=1;entryX=0;entryY=0.5;entryDx=0;entryDy=0;" edge="1" parent="WIyWlLk6GJQsqaUBKTNV-1" source="hgIJVjoQUOw6pycMSGW2-21" target="hgIJVjoQUOw6pycMSGW2-39">
          <mxGeometry relative="1" as="geometry">
            <Array as="points">
              <mxPoint x="20" y="910" />
            </Array>
          </mxGeometry>
        </mxCell>
        <mxCell id="hgIJVjoQUOw6pycMSGW2-21" value="Tam giác vuông cân" style="shape=parallelogram;perimeter=parallelogramPerimeter;whiteSpace=wrap;html=1;fixedSize=1;" vertex="1" parent="WIyWlLk6GJQsqaUBKTNV-1">
          <mxGeometry x="-50" y="330" width="150" height="60" as="geometry" />
        </mxCell>
        <mxCell id="hgIJVjoQUOw6pycMSGW2-42" style="edgeStyle=orthogonalEdgeStyle;rounded=0;orthogonalLoop=1;jettySize=auto;html=1;entryX=0;entryY=0.5;entryDx=0;entryDy=0;" edge="1" parent="WIyWlLk6GJQsqaUBKTNV-1" source="hgIJVjoQUOw6pycMSGW2-23" target="hgIJVjoQUOw6pycMSGW2-39">
          <mxGeometry relative="1" as="geometry">
            <Array as="points">
              <mxPoint x="220" y="910" />
            </Array>
          </mxGeometry>
        </mxCell>
        <mxCell id="hgIJVjoQUOw6pycMSGW2-23" value="Tam giác cân" style="shape=parallelogram;perimeter=parallelogramPerimeter;whiteSpace=wrap;html=1;fixedSize=1;" vertex="1" parent="WIyWlLk6GJQsqaUBKTNV-1">
          <mxGeometry x="165" y="460" width="120" height="60" as="geometry" />
        </mxCell>
        <mxCell id="hgIJVjoQUOw6pycMSGW2-32" value="true" style="edgeStyle=orthogonalEdgeStyle;rounded=0;orthogonalLoop=1;jettySize=auto;html=1;" edge="1" parent="WIyWlLk6GJQsqaUBKTNV-1" source="hgIJVjoQUOw6pycMSGW2-29" target="hgIJVjoQUOw6pycMSGW2-31">
          <mxGeometry relative="1" as="geometry" />
        </mxCell>
        <mxCell id="hgIJVjoQUOw6pycMSGW2-34" value="false" style="edgeStyle=orthogonalEdgeStyle;rounded=0;orthogonalLoop=1;jettySize=auto;html=1;" edge="1" parent="WIyWlLk6GJQsqaUBKTNV-1" source="hgIJVjoQUOw6pycMSGW2-29" target="hgIJVjoQUOw6pycMSGW2-33">
          <mxGeometry relative="1" as="geometry" />
        </mxCell>
        <mxCell id="hgIJVjoQUOw6pycMSGW2-29" value="a*a+b*b =c*c ||&lt;br&gt;b*b+c*c=a*a ||&lt;br&gt;a*a+c*c=b*b" style="rhombus;whiteSpace=wrap;html=1;" vertex="1" parent="WIyWlLk6GJQsqaUBKTNV-1">
          <mxGeometry x="340" y="440" width="150" height="120" as="geometry" />
        </mxCell>
        <mxCell id="hgIJVjoQUOw6pycMSGW2-40" style="edgeStyle=orthogonalEdgeStyle;rounded=0;orthogonalLoop=1;jettySize=auto;html=1;exitX=1;exitY=0.5;exitDx=0;exitDy=0;entryX=1;entryY=0.5;entryDx=0;entryDy=0;" edge="1" parent="WIyWlLk6GJQsqaUBKTNV-1" source="hgIJVjoQUOw6pycMSGW2-31" target="hgIJVjoQUOw6pycMSGW2-39">
          <mxGeometry relative="1" as="geometry">
            <Array as="points">
              <mxPoint x="740" y="500" />
              <mxPoint x="740" y="910" />
            </Array>
          </mxGeometry>
        </mxCell>
        <mxCell id="hgIJVjoQUOw6pycMSGW2-31" value="Tam giác vuông" style="shape=parallelogram;perimeter=parallelogramPerimeter;whiteSpace=wrap;html=1;fixedSize=1;" vertex="1" parent="WIyWlLk6GJQsqaUBKTNV-1">
          <mxGeometry x="520" y="470" width="120" height="60" as="geometry" />
        </mxCell>
        <mxCell id="hgIJVjoQUOw6pycMSGW2-36" value="" style="edgeStyle=orthogonalEdgeStyle;rounded=0;orthogonalLoop=1;jettySize=auto;html=1;" edge="1" parent="WIyWlLk6GJQsqaUBKTNV-1" source="hgIJVjoQUOw6pycMSGW2-33" target="hgIJVjoQUOw6pycMSGW2-35">
          <mxGeometry relative="1" as="geometry" />
        </mxCell>
        <mxCell id="hgIJVjoQUOw6pycMSGW2-38" value="" style="edgeStyle=orthogonalEdgeStyle;rounded=0;orthogonalLoop=1;jettySize=auto;html=1;" edge="1" parent="WIyWlLk6GJQsqaUBKTNV-1" source="hgIJVjoQUOw6pycMSGW2-33" target="hgIJVjoQUOw6pycMSGW2-37">
          <mxGeometry relative="1" as="geometry" />
        </mxCell>
        <mxCell id="hgIJVjoQUOw6pycMSGW2-33" value="a+b&amp;gt;c ||&lt;br&gt;a+c&amp;gt;b ||&lt;br&gt;b+c&amp;gt;a" style="rhombus;whiteSpace=wrap;html=1;" vertex="1" parent="WIyWlLk6GJQsqaUBKTNV-1">
          <mxGeometry x="345" y="600" width="140" height="100" as="geometry" />
        </mxCell>
        <mxCell id="hgIJVjoQUOw6pycMSGW2-41" style="edgeStyle=orthogonalEdgeStyle;rounded=0;orthogonalLoop=1;jettySize=auto;html=1;exitX=1;exitY=0.5;exitDx=0;exitDy=0;entryX=1;entryY=0.5;entryDx=0;entryDy=0;" edge="1" parent="WIyWlLk6GJQsqaUBKTNV-1" source="hgIJVjoQUOw6pycMSGW2-35" target="hgIJVjoQUOw6pycMSGW2-39">
          <mxGeometry relative="1" as="geometry">
            <Array as="points">
              <mxPoint x="740" y="650" />
              <mxPoint x="740" y="910" />
            </Array>
          </mxGeometry>
        </mxCell>
        <mxCell id="hgIJVjoQUOw6pycMSGW2-35" value="Tam giác thường" style="shape=parallelogram;perimeter=parallelogramPerimeter;whiteSpace=wrap;html=1;fixedSize=1;" vertex="1" parent="WIyWlLk6GJQsqaUBKTNV-1">
          <mxGeometry x="510" y="620" width="120" height="60" as="geometry" />
        </mxCell>
        <mxCell id="hgIJVjoQUOw6pycMSGW2-37" value="Không tạo&lt;br&gt;tam giác" style="shape=parallelogram;perimeter=parallelogramPerimeter;whiteSpace=wrap;html=1;fixedSize=1;" vertex="1" parent="WIyWlLk6GJQsqaUBKTNV-1">
          <mxGeometry x="355" y="750" width="120" height="60" as="geometry" />
        </mxCell>
        <mxCell id="hgIJVjoQUOw6pycMSGW2-39" value="End" style="ellipse;whiteSpace=wrap;html=1;" vertex="1" parent="WIyWlLk6GJQsqaUBKTNV-1">
          <mxGeometry x="355" y="870" width="120" height="80" as="geometry" />
        </mxCell>
      </root>
    </mxGraphModel>
  </diagram>
</mxfile>
